HIERARCHY
ROOT Hips
{
 OFFSET 0.000000 0.000000 0.000000
 CHANNELS 6 Xposition Yposition Zposition Yrotation Xrotation Zrotation
 JOINT Chest
 {
  OFFSET 0.000000 9.585900 0.002600
  CHANNELS 3 Yrotation Xrotation Zrotation
  JOINT Chest2
  {
   OFFSET 0.000000 9.601200 -0.005300
   CHANNELS 3 Yrotation Xrotation Zrotation
   JOINT Chest3
   {
    OFFSET 0.000000 9.561800 0.000000
    CHANNELS 3 Yrotation Xrotation Zrotation
    JOINT Chest4
    {
     OFFSET 0.000000 9.552100 0.000000
     CHANNELS 3 Yrotation Xrotation Zrotation
     JOINT Neck
     {
      OFFSET 0.000000 14.453000 0.000000
      CHANNELS 3 Yrotation Xrotation Zrotation
      JOINT Head
      {
       OFFSET 0.000000 8.936500 -0.011300
       CHANNELS 3 Yrotation Xrotation Zrotation
       End Site
       {
        OFFSET 0.000000 17.073600 -0.006000
       }
      }
     }
     JOINT RightCollar
     {
      OFFSET -2.921100 9.558500 0.000000
      CHANNELS 3 Yrotation Xrotation Zrotation
      JOINT RightShoulder
      {
       OFFSET -13.519700 0.000000 0.000000
       CHANNELS 3 Yrotation Xrotation Zrotation
       JOINT RightElbow
       {
        OFFSET 0.000000 -29.696600 0.000000
        CHANNELS 3 Yrotation Xrotation Zrotation
        JOINT RightWrist
        {
         OFFSET 0.000000 -24.004700 0.000000
         CHANNELS 3 Yrotation Xrotation Zrotation
         End Site
         {
          OFFSET 0.000000 -17.728500 0.000000
         }
        }
       }
      }
     }
     JOINT LeftCollar
     {
      OFFSET 2.921100 9.558500 0.000000
      CHANNELS 3 Yrotation Xrotation Zrotation
      JOINT LeftShoulder
      {
       OFFSET 13.519700 0.000000 0.000000
       CHANNELS 3 Yrotation Xrotation Zrotation
       JOINT LeftElbow
       {
        OFFSET 0.000000 -29.696600 0.000000
        CHANNELS 3 Yrotation Xrotation Zrotation
        JOINT LeftWrist
        {
         OFFSET 0.000000 -24.004700 0.000000
         CHANNELS 3 Yrotation Xrotation Zrotation
         End Site
         {
          OFFSET 0.000000 -17.728500 0.000000
         }
        }
       }
      }
     }
    }
   }
  }
 }
 JOINT RightHip
 {
  OFFSET -7.771700 -0.012900 -0.001300
  CHANNELS 3 Yrotation Xrotation Zrotation
  JOINT RightKnee
  {
   OFFSET 0.000000 -40.869800 0.001200
   CHANNELS 3 Yrotation Xrotation Zrotation
   JOINT RightAnkle
   {
    OFFSET 0.000000 -39.717900 0.002100
    CHANNELS 3 Yrotation Xrotation Zrotation
    JOINT RightToe
    {
     OFFSET 0.000000 -4.965400 11.033500
     CHANNELS 3 Yrotation Xrotation Zrotation
     End Site
     {
      OFFSET 0.000000 -1.423100 5.872300
     }
    }
   }
  }
 }
 JOINT LeftHip
 {
  OFFSET 7.771700 -0.012900 -0.001300
  CHANNELS 3 Yrotation Xrotation Zrotation
  JOINT LeftKnee
  {
   OFFSET 0.000000 -40.869800 0.001200
   CHANNELS 3 Yrotation Xrotation Zrotation
   JOINT LeftAnkle
   {
    OFFSET 0.000000 -39.717900 0.002100
    CHANNELS 3 Yrotation Xrotation Zrotation
    JOINT LeftToe
    {
     OFFSET 0.000000 -4.965400 11.033500
     CHANNELS 3 Yrotation Xrotation Zrotation
     End Site
     {
      OFFSET 0.000000 -1.423100 5.872300
     }
    }
   }
  }
 }
}
MOTION
Frames: 8
Frame Time: 0.008333
0.000000 85.388000 0.000000 0.000000 -5.767877 0.000000 0.000000 11.653817 0.000000 0.000000 -5.885947 0.000000 0.000000 -0.000000 0.000000 0.000000 -0.000000 0.000000 0.000000 12.528835 0.000000 0.000000 0.711642 0.000000 0.000000 -0.000000 0.000000 0.000000 0.000000 -90.000000 0.000000 -2.309062 0.000000 0.000000 2.309062 0.000000 0.000000 -0.000000 0.000000 0.000000 -0.000000 90.000000 0.000000 -2.309062 0.000000 0.000000 2.309062 0.000000 0.000000 8.520406 0.000000 0.000000 1.905762 0.000000 -0.000000 -4.658285 0.000000 0.000000 -0.000000 0.000000 0.000000 8.520406 0.000000 0.000000 1.905762 0.000000 -0.000000 -4.658285 0.000000 0.000000 -0.000000 0.000000
-5.793738 52.240076 29.924181 171.447258 -38.731964 -2.143451 3.433739 20.649009 2.039816 0.325802 2.695791 0.366968 0.594635 4.456529 0.603006 2.646998 17.668742 2.769037 0.540026 14.083092 -1.425148 1.658419 -9.599253 -2.903388 -2.362403 -2.797926 -3.529197 4.277521 -22.668211 4.231350 -122.670617 -81.033155 132.248811 -2.490954 -7.484832 -0.636966 -6.205573 -2.628498 -0.673997 1.202727 -20.699359 3.449040 107.205404 -74.306088 -116.570158 7.381134 -12.490588 9.234660 -4.086805 -42.618020 3.572997 -127.386337 85.342230 -123.006313 -0.328262 -10.262388 -3.101096 0.541192 -1.089767 0.252481 0.096085 -39.051261 5.750822 67.769921 83.799360 57.352264 -5.557295 -12.081923 10.309916 0.355442 1.275923 0.170875
-5.791996 52.238485 29.899323 171.486402 -38.737838 -2.136199 3.404063 20.671512 2.010850 0.337876 2.703383 0.363584 0.595628 4.454419 0.600273 2.643991 17.648896 2.759495 0.568667 14.086871 -1.414058 1.703089 -9.579444 -2.892457 -2.270553 -2.838572 -3.505035 4.407266 -23.203991 4.168453 -119.062546 -81.280741 128.209264 -2.459953 -7.274636 -0.633713 -6.331406 -2.642229 -0.672402 1.149799 -21.203367 3.467801 103.437686 -74.193732 -112.452811 7.399650 -11.880373 9.207189 -4.054938 -42.616142 3.520581 -128.058631 85.329512 -123.665825 -0.360646 -10.304976 -3.094441 0.542471 -1.096163 0.258386 0.102755 -39.047096 5.710493 68.058450 83.815465 57.645180 -5.577363 -12.096750 10.312283 0.371310 1.264746 0.174022
-5.781855 52.230372 29.880752 171.470916 -38.680931 -2.146647 3.431944 20.627269 2.033729 0.362298 2.738550 0.359302 0.575402 4.422470 0.599128 2.646056 17.636337 2.752051 0.596064 14.093429 -1.404706 1.748582 -9.557552 -2.887329 -2.171214 -2.878273 -3.479349 4.533877 -23.718497 4.103639 -115.044740 -81.462751 123.751501 -2.446822 -6.990267 -0.572924 -6.457888 -2.653577 -0.677059 1.082868 -21.686315 3.500189 99.730397 -73.938113 -108.367207 7.406148 -11.304282 9.137501 -4.038214 -42.677240 3.547643 -128.272545 85.308641 -123.860989 -0.357079 -10.318964 -3.099197 0.535502 -1.101138 0.263387 0.123084 -39.108844 5.738837 68.310314 83.844979 57.907995 -5.582394 -12.138322 10.320560 0.367074 1.272589 0.175383
-5.775741 52.223144 29.857840 171.482311 -38.631389 -2.143931 3.434892 20.607502 2.023838 0.359041 2.736490 0.359161 0.573763 4.415363 0.596744 2.644882 17.631671 2.728181 0.627134 14.092926 -1.382564 1.795607 -9.530504 -2.882215 -2.059285 -2.922729 -3.432356 4.651794 -24.207531 4.031723 -110.541930 -81.538237 118.807244 -2.461694 -6.660939 -0.464477 -6.581434 -2.665278 -0.667177 0.985233 -22.147258 3.538025 96.159076 -73.541400 -104.383692 7.400469 -10.767755 9.003081 -4.003937 -42.738150 3.540946 -128.662704 85.273357 -124.234488 -0.393756 -10.342053 -3.099914 0.559181 -1.112946 0.277829 0.132476 -39.159802 5.726081 68.593842 83.865155 58.195890 -5.584369 -12.182617 10.329128 0.355468 1.286801 0.170258
-5.774002 52.220362 29.827274 171.530113 -38.621689 -2.130242 3.397139 20.633761 1.982096 0.357770 2.733179 0.357484 0.566008 4.396920 0.596624 2.642235 17.626234 2.724294 0.654712 14.108276 -1.383374 1.841957 -9.500967 -2.879656 -1.932689 -2.953561 -3.405293 4.767209 -24.672331 3.952211 -105.667722 -81.480032 113.491126 -2.508866 -6.340102 -0.348420 -6.697698 -2.661136 -0.682883 0.854571 -22.588327 3.569131 92.850452 -73.071197 -100.618987 7.363099 -10.256667 8.822912 -3.980562 -42.752405 3.490710 -129.273688 85.234449 -124.846294 -0.429028 -10.398183 -3.085358 0.577666 -1.115495 0.280342 0.138705 -39.166634 5.669399 68.895627 83.880053 58.498876 -5.598095 -12.213201 10.334584 0.367162 1.286594 0.170599
-5.765833 52.212725 29.804170 171.518622 -38.561131 -2.124397 3.432111 20.630503 1.988871 0.339721 2.689686 0.357314 0.563204 4.393324 0.594875 2.639744 17.621380 2.720448 0.681199 14.127593 -1.383984 1.851569 -9.499962 -2.872010 -1.867465 -2.971884 -3.387063 4.943213 -25.132112 3.887633 -100.655950 -81.287685 108.039327 -2.588630 -6.087710 -0.260348 -6.810649 -2.649171 -0.696013 0.703902 -23.011961 3.580170 89.907183 -72.653738 -97.162555 7.286846 -9.749358 8.633230 -3.966601 -42.817245 3.506425 -129.502750 85.203704 -125.071592 -0.432303 -10.424982 -3.086772 0.582223 -1.115303 0.283269 0.147208 -39.226904 5.673460 69.241219 83.891506 58.842899 -5.596525 -12.263353 10.346102 0.340636 1.300684 0.159096
-5.756400 52.206915 29.779432 171.499856 -38.514337 -2.121379 3.452568 20.591014 1.997268 0.344200 2.696724 0.356868 0.585357 4.435563 0.588910 2.623992 17.583391 2.713586 0.733282 14.182480 -1.385004 1.822688 -9.546731 -2.846123 -1.714501 -3.012890 -3.342952 5.030521 -25.554922 3.812745 -95.747897 -80.979441 102.690616 -2.696943 -5.945345 -0.205981 -6.933555 -2.642993 -0.695393 0.568861 -23.420332 3.562050 87.302019 -72.413361 -93.999338 7.187386 -9.229105 8.454757 -3.956808 -42.865325 3.533564 -129.696586 85.174113 -125.264153 -0.431119 -10.449558 -3.091042 0.582197 -1.117593 0.287310 0.171523 -39.270371 5.682245 69.532310 83.908368 59.144356 -5.602510 -12.317643 10.351073 0.339098 1.319014 0.154333
